Patient4_TMGait_0pt5_01_left_16_EMG.mot
version=1
nRows=30
nColumns=33
inDegrees=no
endheader
time	1LAddLong	2LGlutMax	3LGlutMed	4LIliopsoas	5LSemiMemb	6LBicFemLong	7LRecFem	8LVastMed	9LVastLat	10LGasMed	11LTibAnt	12lTibPost	13LPeroneusLong	14LSol	15LExtDigLong	16LFlexDigLong	17RAddLong	18RGlutMax	19RGlutMed	20RIliopsoas	21RSemiMemb	22RBicFemLong	23RRecFem	24RVastMed	25RVastLat	26RGasMed	27RTibAnt	28RTibPost	29RPeroneusLong	30RSol	31RExtDigLong	32RFlexDigLong
21.855	0.080872	1.0521	-0.18616	0.021362	-0.18204	-0.16754	-0.33279	-0.016174	0.049286	0.32486	0.18875	0.007477	0.10346	-0.47699	0.075073	0.010834	-0.00061	0.084534	0.15137	0.095825	0.054016	0.31006	0.18173	-0.029144	0.031586	0.008698	-0.017853	-0.044708	-0.42313	-0.60257	-0.002594	-0.006256
21.856	0.067749	0.87585	-0.12054	0.00885	0.018158	-0.013123	-0.26535	-0.013428	-0.026245	0.32516	0.17517	0.085754	0.15747	-0.2066	0.15869	0.019989	-0.015411	0.04837	0.15045	0.092926	0.050812	0.3096	0.15472	-0.004578	0.032349	-0.000458	-0.065155	-0.088348	-0.5397	-0.45807	-0.006104	-0.013733
21.857	0.045624	0.74951	0.0177	0.009613	0.13245	0.31265	-0.27206	-0.004883	-0.085144	-0.1355	0.096741	-0.014496	0.16846	0.24521	0.17777	0.011902	0.004578	0.063324	0.14786	0.049286	0.060425	0.20096	0.14618	0.04425	0.014648	0.004578	-0.044861	0.027008	-0.37674	-0.1593	-0.002441	-0.000153
21.858	0.014496	0.63965	-0.027771	0.013123	0.15915	0.49057	-0.24323	0.016479	-0.067444	-0.078278	0.043488	-0.17441	0.57175	0.41901	0.093079	0.017395	-0.018311	0.016937	0.055695	0.11032	0.063934	0.09613	0.10681	0.00946	0.018158	0.006866	-0.033264	-0.000153	-0.10315	-0.13229	-0.001373	-0.009155
21.859	0.000458	0.62149	-0.09201	0.002289	0.11337	0.37491	-0.36514	0.014038	-0.036774	0.60028	0.049591	-0.052032	-0.018158	0.18875	0.019989	0.004883	-0.034485	0.03952	0.08316	0.10239	0.039825	0.17914	0.12314	-0.009003	0.020599	0.008392	-0.003357	-0.055389	-0.059814	-0.17761	0.001831	-0.010986
21.86	-0.00824	0.55344	-0.068817	0.01709	0.050201	0.062561	-0.51315	0.021362	0.064545	-0.002136	0.05188	-0.024567	-0.28717	-0.10178	0.036163	0.00885	-0.026855	-0.019684	0.10239	0.078278	0.004425	0.23789	0.13153	-0.041962	0.013885	0.004272	0.068817	-0.048828	-0.09079	-0.21729	-0.002594	-0.001373
21.861	-0.00473	0.5452	0.10452	0.00946	0.010071	-0.16663	-0.52124	0.01709	0.34821	-1.0281	0.053864	-0.015564	-0.10483	-0.13687	-0.051422	0.006866	-0.030518	-0.033112	0.19745	0.091095	-0.05661	0.18021	0.14999	-0.07431	0.011749	0.009613	0.097656	-0.013275	-0.041962	-0.33478	0.002441	-0.000458
21.862	0.005646	0.55267	0.23743	0.021973	0.013885	-0.35736	-0.48752	0.019531	0.40329	-0.75287	0.02243	0.020142	0.2298	-0.42419	-0.041656	0.024719	-0.00946	-0.072021	0.25238	0.052032	-0.06424	0.12756	0.18478	-0.084686	0.007629	0.012054	0.07309	-0.019226	0.00885	-0.31082	0.000153	0.002136
21.863	0.009613	0.50384	0.08255	0.021362	0.010986	-0.47226	-0.5191	-0.005951	0.27115	0.032501	-0.05127	0.03479	0.54336	-0.79971	0.031586	0.01297	-0.04776	-0.046082	0.13947	0.003967	-0.075073	0.13092	0.20157	-0.12695	-0.007629	0.012512	0.065918	-0.02182	0.077362	0.069885	-0.000458	-0.000916
21.864	0.02655	0.47089	-0.004578	0.022583	0.06424	-0.42435	-0.52124	-0.030975	0.19577	0.54367	-0.075531	-0.020447	0.1445	-0.95947	0.055084	0.015411	-0.06134	-0.12421	0.13718	-0.001526	-0.069733	0.1088	0.24048	-0.09201	-0.014343	0.011902	0.03952	-0.022888	0.10269	0.25452	-0.002289	-0.001678
21.865	0.028687	0.49454	-0.062561	0.04425	0.060425	-0.24002	-0.53635	-0.053711	0.17273	0.578	-0.034485	-0.046082	-0.058899	-0.57053	0.027618	0.040588	-0.082703	-0.14542	0.13779	-0.069122	-0.063171	0.10376	0.17197	-0.080872	0.010529	0.010681	0.031586	-0.027008	0.075989	0.00061	0.006256	-0.001678
21.866	0.018616	0.45837	-0.067596	0.020142	0.018005	0.009918	-0.58685	-0.031586	0.049896	0.21393	0.00946	0.3093	0.89508	0.049286	-0.024261	0.041199	-0.11276	-0.12772	0.078125	-0.1593	-0.08728	0.098877	0.15411	-0.051117	0.007477	0.007629	0.031586	-0.024109	0.076447	-0.11566	-0.000763	-0.000153
21.867	-0.009308	0.49698	-0.039215	0.011902	0.01236	0.089874	-0.55634	-0.003052	-0.069122	-0.030823	0.04776	-0.096283	-0.020447	0.21561	0.010223	0.027008	-0.093384	-0.11368	0.040894	-0.20752	-0.070801	0.10925	0.14938	-0.046234	0.000153	-0.000458	0.045471	-0.023956	0.10834	-0.16769	-0.001221	-0.010223
21.868	-0.000763	0.47531	-0.046387	0.012054	-0.002136	0.084991	-0.62805	-0.021667	-0.12512	-0.33814	0.057983	0.000763	-0.1503	0.57312	-0.019989	0.003662	-0.066681	-0.097046	-0.007324	-0.041962	-0.086212	0.10742	0.12909	-0.067596	0.006104	-0.000916	0.084229	-0.02533	0.004425	-0.21088	-0.001984	-0.014191
21.869	0.012512	0.44357	-0.032349	0.003967	-0.038147	0.17975	-0.77805	-0.034943	-0.12711	-0.50705	-0.001526	0.019226	0.12558	0.67734	-0.177	0.002747	-0.008545	-0.089417	0.018158	0.047607	-0.085144	0.084534	0.13962	-0.12329	-0.002441	-0.003662	0.072937	-0.038147	-0.31647	-0.29404	0.007172	-0.020142
21.87	-0.001678	0.31967	-0.13626	0.007782	-0.091553	0.37445	-0.85312	-0.036469	-0.09491	-0.43335	-0.045929	-0.010071	0.62882	0.31036	-0.39719	-0.010071	0.022888	-0.15182	0.022888	0.16159	-0.068207	0.091553	0.13367	-0.072937	0.001678	-0.013885	0.03006	-0.052032	-0.37231	-0.30716	-0.001373	-0.0177
21.871	-0.002441	0.26703	-0.10834	0.013733	-0.097046	0.37476	-0.87585	-0.038605	-0.13794	-0.30197	-0.005493	-0.00351	0.27161	0.25314	-0.24735	-0.002899	0.069733	-0.11993	0.11459	0.34195	-0.05127	0.069733	0.15091	-0.062256	0.00824	-0.034332	-0.014343	-0.053864	-0.14771	-0.18677	0.000305	-0.028076
21.872	-0.012665	0.20554	-0.10773	0.014191	-0.021362	-0.2359	-0.78186	0.003967	-0.21408	-0.12878	0.007782	0.009766	-0.10574	0.27954	-0.18036	-0.005646	0.095978	-0.12878	0.23651	0.27863	-0.062714	0.073853	0.13412	-0.066223	0.007629	-0.032959	-0.035095	0.030823	-0.1445	-0.023041	-0.001526	-0.019836
21.873	-0.03418	0.18906	0.009308	0.009918	0.004272	0.077057	-0.68039	0.016479	-0.1947	0.010834	0.014954	-0.015411	-0.22339	0.15839	-0.093384	-0.005493	0.14221	-0.13245	0.27145	0.067902	-0.08606	0.067902	0.1445	-0.10208	0.00885	-0.006409	-0.00946	0.025177	-0.3035	0.29846	-0.005188	-0.017548
21.874	-0.028534	0.22659	0.058899	0.000458	-0.041809	0.46555	-0.70633	0.01358	-0.17975	0.11917	0.014954	-0.019684	0.17517	0.084534	-0.008545	0.004425	0.13199	-0.11612	0.24918	-0.09552	-0.087738	0.076599	0.1091	-0.082703	-0.019684	0.018005	0.015411	0.007935	-0.51422	0.54718	-0.001831	-0.015411
21.875	-0.031891	0.224	-0.033264	0.010223	-0.13153	0.56442	-0.72052	0.017853	-0.20966	0.091705	-0.055084	-0.013885	0.93445	0.010223	0.062561	0.001984	0.062866	-0.13123	0.2475	-0.18967	-0.11871	0.15579	0.061951	-0.050964	0.000458	0.032196	0.014496	0.012512	-0.093842	0.55771	-0.000763	-0.005341
21.876	-0.039215	0.2594	-0.027466	0.009766	-0.19592	0.33295	-0.69992	0.008392	-0.25955	0.093384	0.007629	-0.020294	-0.22263	-0.080719	0.10376	0.005951	0.028839	-0.16678	0.28244	-0.16632	-0.10437	0.26367	0.011139	0.007019	0.024109	0.036011	0.025024	0.017853	0.18784	0.39139	-0.002594	-0.014191
21.877	-0.015106	0.26245	-0.078278	-0.00824	-0.1355	-0.080414	-0.72525	0.006256	-0.22354	0.036774	0.006714	-0.014648	-0.58319	0.073853	0.054779	0.008392	0.04364	-0.14526	0.24521	-0.17639	-0.054016	0.22705	0.041199	-0.011139	-0.01709	0.028687	0.063477	-0.022125	0.52429	-0.1918	0.000153	-0.011902
21.878	-0.005951	0.20599	-0.16556	0.006104	0.021667	-0.39124	-0.83466	-0.006256	-0.11414	-0.012665	-0.009613	-0.024261	-0.13062	0.025787	-0.057831	-0.016785	0.045929	-0.11902	0.20309	-0.14404	-0.021973	0.14038	0.055084	0.004883	-0.003662	0.017548	0.046387	-0.11353	0.14832	-0.4863	-0.001526	-0.012817
21.879	-0.021057	0.14145	-0.17349	0.018311	-0.053864	-0.19928	-0.91721	0.003967	0.056	-0.012512	0.022888	-0.01709	-0.044403	-0.14694	-0.044708	-0.020905	0.042267	-0.099335	0.15259	-0.066986	-0.031738	0.085754	0.023651	-0.021667	0.002747	0.006866	0.007019	0.044556	-0.12894	-0.17197	-0.002747	0.000458
21.88	-0.001678	-0.001678	-0.15549	0.032806	-0.033417	-0.67932	-0.76645	0.022125	0.22919	-0.2124	0.049133	-0.011749	-0.36545	-0.21301	-0.081787	-0.005798	0.040894	-0.13748	0.06134	0.038147	0.006866	0.032043	-0.010071	-0.011902	-0.001526	0.003052	-0.02594	0.037689	-0.089111	-0.17517	-0.001678	-0.007629
21.881	0.024719	-0.037842	-0.099487	0.021667	0.069427	-1.0349	-0.54627	0.00824	0.23285	-0.28473	0.052948	-0.012817	-0.31967	-0.07843	-0.010834	-0.012207	0.044861	-0.17822	0.048065	0.09079	0.055389	0.034637	-0.016174	-0.039825	-0.019226	-0.005951	0.000305	0.007935	0.25955	-0.006256	-0.002747	-0.006409
21.882	0.032501	-0.076294	0.15564	0.002747	0.12909	-0.439	-0.35828	-0.023346	0.15289	-0.34241	0.009613	-0.005951	0.35339	0.084991	0.057983	0.006866	0.009155	-0.10086	0.076752	0.032654	0.073242	0.067444	-0.041351	-0.077667	-0.007324	0.005646	0.002136	-0.005035	0.41702	-0.089111	-0.00351	-0.006409
21.883	0.030212	-0.20477	0.20035	0.020142	0.13443	-0.047455	-0.35614	-0.023346	0.051422	-0.069733	-0.061188	-0.014648	0.96085	0.093994	0.14999	0.000916	0.011749	-0.11612	0.12451	-0.052185	0.028229	0.13306	-0.004578	-0.10376	-0.019531	0.006866	0.005951	-0.022125	0.47134	-0.3122	0	-0.011597
21.884	0.040436	-0.18768	0.11581	0.009918	0.073547	0.007782	-0.40802	-0.019684	-0.003052	0.090332	-0.013733	-0.019379	-0.1062	-0.12207	0.15472	-0.005798	-0.024109	-0.020752	0.086365	-0.031738	0.01297	0.24902	0.018158	-0.049744	-0.039368	-0.000458	0.052032	-0.024872	0.12833	-0.43198	-0.002441	-0.011749
